<?xml version="1.0" encoding="utf-8"?>
<!-- Generator: Adobe Illustrator 23.0.4, SVG Export Plug-In . SVG Version: 6.00 Build 0)  -->
<svg version="1.1" id="Capa_1" xmlns="http://www.w3.org/2000/svg" xmlns:xlink="http://www.w3.org/1999/xlink" x="0px" y="0px"
	 viewBox="0 0 223.1 246.5" style="enable-background:new 0 0 223.1 246.5;" xml:space="preserve">
<g>
	<path d="M192.3,42.5c-13.7-13.7-31.9-21.3-51.3-21.3c-19.4,0-37.6,7.6-51.3,21.3C75.9,56.2,68.4,74.5,68.4,93.8
		c0,14.9,4.5,29,12.7,41l-19.4,19.4l-2.6-2.6c-1.1-1.1-2.8-1.1-3.9,0l-44.8,44.8c-0.5,0.5-0.8,1.2-0.8,1.9s0.3,1.4,0.8,1.9l24,24
		c0.5,0.5,1.2,0.8,1.9,0.8s1.4-0.3,1.9-0.8l44.8-44.8c1-1,1-2.9,0-3.9l-2.6-2.6l19.4-19.4c12,8.3,26.2,12.7,41,12.7
		c19.4,0,37.6-7.6,51.3-21.3c13.7-13.7,21.3-31.9,21.3-51.3S206,56.2,192.3,42.5z M59.7,195.2l-20.1-20.1l6.8-6.8l20.1,20.1
		L59.7,195.2z M36.3,218.6l-20.1-20.1L35.7,179l20.1,20.1L36.3,218.6z M70.5,184.5l-20.1-20.1l6.8-6.8l20.1,20.1L70.5,184.5z
		 M76.6,169.2l-11-11l18.8-18.8c1.6,2,3.4,4,5.2,5.8c1.9,1.9,3.8,3.6,5.8,5.2L76.6,169.2z M188.4,141.3
		c-12.7,12.7-29.5,19.6-47.4,19.6c-17.9,0-34.8-7-47.4-19.6c-12.7-12.7-19.6-29.5-19.6-47.4c0-17.9,7-34.8,19.6-47.4
		c26.2-26.2,68.7-26.2,94.9,0C201.1,59.1,208,75.9,208,93.8C208,111.8,201.1,128.6,188.4,141.3z"/>
	<path d="M179.3,55.5c-10.2-10.2-23.9-15.9-38.3-15.9c-14.5,0-28.1,5.6-38.3,15.9C92.4,65.7,86.7,79.4,86.7,93.8
		c0,14.5,5.6,28.1,15.9,38.3c10.2,10.2,23.9,15.9,38.3,15.9c14.5,0,28.1-5.6,38.3-15.9c10.2-10.2,15.9-23.9,15.9-38.3
		C195.2,79.4,189.5,65.7,179.3,55.5z M175.4,128.3c-9.2,9.2-21.4,14.3-34.4,14.3c-13,0-25.2-5.1-34.4-14.3
		c-9.2-9.2-14.3-21.4-14.3-34.4c0-13,5.1-25.2,14.3-34.4c9.2-9.2,21.4-14.3,34.4-14.3c13,0,25.2,5.1,34.4,14.3
		c9.2,9.2,14.3,21.4,14.3,34.4C189.7,106.9,184.6,119.1,175.4,128.3z"/>
</g>
</svg>
