<?xml version="1.0" encoding="utf-8"?>
<!-- Generator: Adobe Illustrator 23.0.4, SVG Export Plug-In . SVG Version: 6.00 Build 0)  -->
<svg version="1.1" id="Capa_1" xmlns="http://www.w3.org/2000/svg" xmlns:xlink="http://www.w3.org/1999/xlink" x="0px" y="0px"
	 viewBox="0 0 223.1 246.5" style="enable-background:new 0 0 223.1 246.5;" xml:space="preserve">
<g>
	<path class="st0" d="M223.1,237.5c0,2.4-1,4.7-2.7,6.4c-1.7,1.7-4,2.7-6.4,2.7c-2.4,0-4.7-1-6.4-2.7c-1.7-1.7-2.7-4-2.7-6.4
		c0-2.4,1-4.7,2.7-6.4c1.7-1.7,4-2.7,6.4-2.7c2.4,0,4.7,1,6.4,2.7C222.1,232.7,223.1,235,223.1,237.5 M223.1,199.4
		c0,2.4-1,4.7-2.7,6.4c-1.7,1.7-4,2.7-6.4,2.7c-2.4,0-4.7-1-6.4-2.7c-1.7-1.7-2.7-4-2.7-6.4c0-2.4,1-4.7,2.7-6.4
		c1.7-1.7,4-2.7,6.4-2.7c2.4,0,4.7,1,6.4,2.7C222.1,194.7,223.1,197,223.1,199.4 M223.1,161.3c0,2.4-1,4.7-2.7,6.4
		c-1.7,1.7-4,2.7-6.4,2.7c-2.4,0-4.7-1-6.4-2.7c-1.7-1.7-2.7-4-2.7-6.4c0-2.4,1-4.7,2.7-6.4c1.7-1.7,4-2.7,6.4-2.7
		c2.4,0,4.7,1,6.4,2.7C222.1,156.6,223.1,158.9,223.1,161.3 M223.1,123.3c0,2.4-1,4.7-2.7,6.4c-1.7,1.7-4,2.7-6.4,2.7
		c-2.4,0-4.7-1-6.4-2.7c-1.7-1.7-2.7-4-2.7-6.4c0-2.4,1-4.7,2.7-6.4c1.7-1.7,4-2.7,6.4-2.7c2.4,0,4.7,1,6.4,2.7
		C222.1,118.6,223.1,120.9,223.1,123.3 M223.1,85.2c0,2.4-1,4.7-2.7,6.4c-1.7,1.7-4,2.7-6.4,2.7c-2.4,0-4.7-1-6.4-2.7
		c-1.7-1.7-2.7-4-2.7-6.4c0-2.4,1-4.7,2.7-6.4c1.7-1.7,4-2.7,6.4-2.7c2.4,0,4.7,1,6.4,2.7C222.1,80.5,223.1,82.8,223.1,85.2
		 M223.1,47.1c0,2.4-1,4.7-2.7,6.4c-1.7,1.7-4,2.7-6.4,2.7c-2.4,0-4.7-1-6.4-2.7c-1.7-1.7-2.7-4-2.7-6.4c0-2.4,1-4.7,2.7-6.4
		c1.7-1.7,4-2.7,6.4-2.7c2.4,0,4.7,1,6.4,2.7C222.1,42.4,223.1,44.7,223.1,47.1 M223.1,9.1c0,2.4-1,4.7-2.7,6.4
		c-1.7,1.7-4,2.7-6.4,2.7c-2.4,0-4.7-1-6.4-2.7c-1.7-1.7-2.7-4-2.7-6.4c0-2.4,1-4.7,2.7-6.4c1.7-1.7,4-2.7,6.4-2.7
		c2.4,0,4.7,1,6.4,2.7C222.1,4.4,223.1,6.7,223.1,9.1 M183.3,237.5c0,2.4-1,4.7-2.7,6.4c-1.7,1.7-4,2.7-6.4,2.7
		c-2.4,0-4.7-1-6.4-2.7s-2.7-4-2.7-6.4c0-2.4,1-4.7,2.7-6.4s4-2.7,6.4-2.7c2.4,0,4.7,1,6.4,2.7C182.4,232.7,183.3,235,183.3,237.5
		 M183.3,199.4c0,2.4-1,4.7-2.7,6.4c-1.7,1.7-4,2.7-6.4,2.7c-2.4,0-4.7-1-6.4-2.7c-1.7-1.7-2.7-4-2.7-6.4c0-2.4,1-4.7,2.7-6.4
		s4-2.7,6.4-2.7c2.4,0,4.7,1,6.4,2.7C182.4,194.7,183.3,197,183.3,199.4 M183.3,161.3c0,2.4-1,4.7-2.7,6.4c-1.7,1.7-4,2.7-6.4,2.7
		c-2.4,0-4.7-1-6.4-2.7c-1.7-1.7-2.7-4-2.7-6.4c0-2.4,1-4.7,2.7-6.4s4-2.7,6.4-2.7c2.4,0,4.7,1,6.4,2.7
		C182.4,156.6,183.3,158.9,183.3,161.3 M183.3,123.3c0,2.4-1,4.7-2.7,6.4c-1.7,1.7-4,2.7-6.4,2.7c-2.4,0-4.7-1-6.4-2.7
		c-1.7-1.7-2.7-4-2.7-6.4c0-2.4,1-4.7,2.7-6.4s4-2.7,6.4-2.7c2.4,0,4.7,1,6.4,2.7C182.4,118.6,183.3,120.9,183.3,123.3 M183.3,85.2
		c0,2.4-1,4.7-2.7,6.4c-1.7,1.7-4,2.7-6.4,2.7c-2.4,0-4.7-1-6.4-2.7c-1.7-1.7-2.7-4-2.7-6.4c0-2.4,1-4.7,2.7-6.4
		c1.7-1.7,4-2.7,6.4-2.7c2.4,0,4.7,1,6.4,2.7C182.4,80.5,183.3,82.8,183.3,85.2 M183.3,47.1c0,2.4-1,4.7-2.7,6.4
		c-1.7,1.7-4,2.7-6.4,2.7c-2.4,0-4.7-1-6.4-2.7c-1.7-1.7-2.7-4-2.7-6.4c0-2.4,1-4.7,2.7-6.4c1.7-1.7,4-2.7,6.4-2.7
		c2.4,0,4.7,1,6.4,2.7C182.4,42.4,183.3,44.7,183.3,47.1 M183.3,9.1c0,2.4-1,4.7-2.7,6.4c-1.7,1.7-4,2.7-6.4,2.7
		c-2.4,0-4.7-1-6.4-2.7s-2.7-4-2.7-6.4c0-2.4,1-4.7,2.7-6.4s4-2.7,6.4-2.7c2.4,0,4.7,1,6.4,2.7C182.4,4.4,183.3,6.7,183.3,9.1"/>
	<path class="st0" d="M138.9,237.5c0,2.4-1,4.7-2.7,6.4c-1.7,1.7-4,2.7-6.4,2.7c-2.4,0-4.7-1-6.4-2.7c-1.7-1.7-2.7-4-2.7-6.4
		c0-2.4,1-4.7,2.7-6.4c1.7-1.7,4-2.7,6.4-2.7c2.4,0,4.7,1,6.4,2.7C138,232.7,138.9,235,138.9,237.5 M138.9,199.4
		c0,2.4-1,4.7-2.7,6.4c-1.7,1.7-4,2.7-6.4,2.7c-2.4,0-4.7-1-6.4-2.7c-1.7-1.7-2.7-4-2.7-6.4c0-2.4,1-4.7,2.7-6.4
		c1.7-1.7,4-2.7,6.4-2.7c2.4,0,4.7,1,6.4,2.7C138,194.7,138.9,197,138.9,199.4 M138.9,161.3c0,2.4-1,4.7-2.7,6.4
		c-1.7,1.7-4,2.7-6.4,2.7c-2.4,0-4.7-1-6.4-2.7c-1.7-1.7-2.7-4-2.7-6.4c0-2.4,1-4.7,2.7-6.4c1.7-1.7,4-2.7,6.4-2.7
		c2.4,0,4.7,1,6.4,2.7C138,156.6,138.9,158.9,138.9,161.3 M138.9,123.3c0,2.4-1,4.7-2.7,6.4c-1.7,1.7-4,2.7-6.4,2.7
		c-2.4,0-4.7-1-6.4-2.7c-1.7-1.7-2.7-4-2.7-6.4c0-2.4,1-4.7,2.7-6.4c1.7-1.7,4-2.7,6.4-2.7c2.4,0,4.7,1,6.4,2.7
		C138,118.6,138.9,120.9,138.9,123.3 M138.9,85.2c0,2.4-1,4.7-2.7,6.4c-1.7,1.7-4,2.7-6.4,2.7c-2.4,0-4.7-1-6.4-2.7
		c-1.7-1.7-2.7-4-2.7-6.4c0-2.4,1-4.7,2.7-6.4c1.7-1.7,4-2.7,6.4-2.7c2.4,0,4.7,1,6.4,2.7C138,80.5,138.9,82.8,138.9,85.2
		 M138.9,47.1c0,2.4-1,4.7-2.7,6.4c-1.7,1.7-4,2.7-6.4,2.7c-2.4,0-4.7-1-6.4-2.7c-1.7-1.7-2.7-4-2.7-6.4c0-2.4,1-4.7,2.7-6.4
		c1.7-1.7,4-2.7,6.4-2.7c2.4,0,4.7,1,6.4,2.7C138,42.4,138.9,44.7,138.9,47.1 M138.9,9.1c0,2.4-1,4.7-2.7,6.4
		c-1.7,1.7-4,2.7-6.4,2.7c-2.4,0-4.7-1-6.4-2.7c-1.7-1.7-2.7-4-2.7-6.4c0-2.4,1-4.7,2.7-6.4c1.7-1.7,4-2.7,6.4-2.7
		c2.4,0,4.7,1,6.4,2.7C138,4.4,138.9,6.7,138.9,9.1 M99.2,237.5c0,2.4-1,4.7-2.7,6.4c-1.7,1.7-4,2.7-6.4,2.7c-2.4,0-4.7-1-6.4-2.7
		c-1.7-1.7-2.7-4-2.7-6.4c0-2.4,1-4.7,2.7-6.4c1.7-1.7,4-2.7,6.4-2.7c2.4,0,4.7,1,6.4,2.7C98.2,232.7,99.2,235,99.2,237.5
		 M99.2,199.4c0,2.4-1,4.7-2.7,6.4c-1.7,1.7-4,2.7-6.4,2.7c-2.4,0-4.7-1-6.4-2.7c-1.7-1.7-2.7-4-2.7-6.4c0-2.4,1-4.7,2.7-6.4
		c1.7-1.7,4-2.7,6.4-2.7c2.4,0,4.7,1,6.4,2.7C98.2,194.7,99.2,197,99.2,199.4 M99.2,161.3c0,2.4-1,4.7-2.7,6.4
		c-1.7,1.7-4,2.7-6.4,2.7c-2.4,0-4.7-1-6.4-2.7c-1.7-1.7-2.7-4-2.7-6.4c0-2.4,1-4.7,2.7-6.4c1.7-1.7,4-2.7,6.4-2.7
		c2.4,0,4.7,1,6.4,2.7C98.2,156.6,99.2,158.9,99.2,161.3 M99.2,123.3c0,2.4-1,4.7-2.7,6.4c-1.7,1.7-4,2.7-6.4,2.7
		c-2.4,0-4.7-1-6.4-2.7c-1.7-1.7-2.7-4-2.7-6.4c0-2.4,1-4.7,2.7-6.4c1.7-1.7,4-2.7,6.4-2.7c2.4,0,4.7,1,6.4,2.7
		C98.2,118.6,99.2,120.9,99.2,123.3 M99.2,85.2c0,2.4-1,4.7-2.7,6.4c-1.7,1.7-4,2.7-6.4,2.7c-2.4,0-4.7-1-6.4-2.7
		c-1.7-1.7-2.7-4-2.7-6.4c0-2.4,1-4.7,2.7-6.4c1.7-1.7,4-2.7,6.4-2.7c2.4,0,4.7,1,6.4,2.7C98.2,80.5,99.2,82.8,99.2,85.2 M99.2,47.1
		c0,2.4-1,4.7-2.7,6.4c-1.7,1.7-4,2.7-6.4,2.7c-2.4,0-4.7-1-6.4-2.7c-1.7-1.7-2.7-4-2.7-6.4c0-2.4,1-4.7,2.7-6.4
		c1.7-1.7,4-2.7,6.4-2.7c2.4,0,4.7,1,6.4,2.7C98.2,42.4,99.2,44.7,99.2,47.1 M99.2,9.1c0,2.4-1,4.7-2.7,6.4c-1.7,1.7-4,2.7-6.4,2.7
		c-2.4,0-4.7-1-6.4-2.7c-1.7-1.7-2.7-4-2.7-6.4c0-2.4,1-4.7,2.7-6.4C85.4,1,87.7,0,90.1,0c2.4,0,4.7,1,6.4,2.7
		C98.2,4.4,99.2,6.7,99.2,9.1"/>
	<path class="st0" d="M57.9,237.5c0,2.4-1,4.7-2.7,6.4c-1.7,1.7-4,2.7-6.4,2.7c-2.4,0-4.7-1-6.4-2.7c-1.7-1.7-2.7-4-2.7-6.4
		c0-2.4,1-4.7,2.7-6.4c1.7-1.7,4-2.7,6.4-2.7c2.4,0,4.7,1,6.4,2.7C56.9,232.7,57.9,235,57.9,237.5 M57.9,199.4c0,2.4-1,4.7-2.7,6.4
		c-1.7,1.7-4,2.7-6.4,2.7c-2.4,0-4.7-1-6.4-2.7c-1.7-1.7-2.7-4-2.7-6.4c0-2.4,1-4.7,2.7-6.4c1.7-1.7,4-2.7,6.4-2.7
		c2.4,0,4.7,1,6.4,2.7C56.9,194.7,57.9,197,57.9,199.4 M57.9,161.3c0,2.4-1,4.7-2.7,6.4c-1.7,1.7-4,2.7-6.4,2.7
		c-2.4,0-4.7-1-6.4-2.7c-1.7-1.7-2.7-4-2.7-6.4c0-2.4,1-4.7,2.7-6.4c1.7-1.7,4-2.7,6.4-2.7c2.4,0,4.7,1,6.4,2.7
		C56.9,156.6,57.9,158.9,57.9,161.3 M57.9,123.3c0,2.4-1,4.7-2.7,6.4c-1.7,1.7-4,2.7-6.4,2.7c-2.4,0-4.7-1-6.4-2.7
		c-1.7-1.7-2.7-4-2.7-6.4c0-2.4,1-4.7,2.7-6.4c1.7-1.7,4-2.7,6.4-2.7c2.4,0,4.7,1,6.4,2.7C56.9,118.6,57.9,120.9,57.9,123.3
		 M57.9,85.2c0,2.4-1,4.7-2.7,6.4c-1.7,1.7-4,2.7-6.4,2.7c-2.4,0-4.7-1-6.4-2.7c-1.7-1.7-2.7-4-2.7-6.4c0-2.4,1-4.7,2.7-6.4
		c1.7-1.7,4-2.7,6.4-2.7c2.4,0,4.7,1,6.4,2.7C56.9,80.5,57.9,82.8,57.9,85.2 M57.9,47.1c0,2.4-1,4.7-2.7,6.4c-1.7,1.7-4,2.7-6.4,2.7
		c-2.4,0-4.7-1-6.4-2.7c-1.7-1.7-2.7-4-2.7-6.4c0-2.4,1-4.7,2.7-6.4c1.7-1.7,4-2.7,6.4-2.7c2.4,0,4.7,1,6.4,2.7
		C56.9,42.4,57.9,44.7,57.9,47.1 M57.9,9.1c0,2.4-1,4.7-2.7,6.4c-1.7,1.7-4,2.7-6.4,2.7c-2.4,0-4.7-1-6.4-2.7
		c-1.7-1.7-2.7-4-2.7-6.4c0-2.4,1-4.7,2.7-6.4C44.1,1,46.4,0,48.8,0c2.4,0,4.7,1,6.4,2.7C56.9,4.4,57.9,6.7,57.9,9.1 M18.2,237.5
		c0,2.4-1,4.7-2.7,6.4c-1.7,1.7-4,2.7-6.4,2.7c-2.4,0-4.7-1-6.4-2.7s-2.7-4-2.7-6.4c0-2.4,1-4.7,2.7-6.4s4-2.7,6.4-2.7
		c2.4,0,4.7,1,6.4,2.7C17.2,232.7,18.2,235,18.2,237.5 M18.2,199.4c0,2.4-1,4.7-2.7,6.4c-1.7,1.7-4,2.7-6.4,2.7
		c-2.4,0-4.7-1-6.4-2.7c-1.7-1.7-2.7-4-2.7-6.4c0-2.4,1-4.7,2.7-6.4s4-2.7,6.4-2.7c2.4,0,4.7,1,6.4,2.7
		C17.2,194.7,18.2,197,18.2,199.4 M18.2,161.3c0,2.4-1,4.7-2.7,6.4c-1.7,1.7-4,2.7-6.4,2.7c-2.4,0-4.7-1-6.4-2.7
		C1,166,0,163.7,0,161.3c0-2.4,1-4.7,2.7-6.4s4-2.7,6.4-2.7c2.4,0,4.7,1,6.4,2.7C17.2,156.6,18.2,158.9,18.2,161.3 M18.2,123.3
		c0,2.4-1,4.7-2.7,6.4c-1.7,1.7-4,2.7-6.4,2.7c-2.4,0-4.7-1-6.4-2.7C1,128,0,125.7,0,123.3c0-2.4,1-4.7,2.7-6.4s4-2.7,6.4-2.7
		c2.4,0,4.7,1,6.4,2.7C17.2,118.6,18.2,120.9,18.2,123.3 M18.2,85.2c0,2.4-1,4.7-2.7,6.4c-1.7,1.7-4,2.7-6.4,2.7
		c-2.4,0-4.7-1-6.4-2.7C1,89.9,0,87.6,0,85.2c0-2.4,1-4.7,2.7-6.4c1.7-1.7,4-2.7,6.4-2.7c2.4,0,4.7,1,6.4,2.7
		C17.2,80.5,18.2,82.8,18.2,85.2 M18.2,47.1c0,2.4-1,4.7-2.7,6.4c-1.7,1.7-4,2.7-6.4,2.7c-2.4,0-4.7-1-6.4-2.7C1,51.9,0,49.5,0,47.1
		c0-2.4,1-4.7,2.7-6.4c1.7-1.7,4-2.7,6.4-2.7c2.4,0,4.7,1,6.4,2.7C17.2,42.4,18.2,44.7,18.2,47.1 M18.2,9.1c0,2.4-1,4.7-2.7,6.4
		c-1.7,1.7-4,2.7-6.4,2.7c-2.4,0-4.7-1-6.4-2.7S0,11.5,0,9.1c0-2.4,1-4.7,2.7-6.4S6.7,0,9.1,0c2.4,0,4.7,1,6.4,2.7
		C17.2,4.4,18.2,6.7,18.2,9.1"/>
</g>
</svg>
