<?xml version="1.0" encoding="utf-8"?>
<!-- Generator: Adobe Illustrator 23.0.4, SVG Export Plug-In . SVG Version: 6.00 Build 0)  -->
<svg version="1.1" id="Capa_1" xmlns="http://www.w3.org/2000/svg" xmlns:xlink="http://www.w3.org/1999/xlink" x="0px" y="0px"
	 viewBox="0 0 248 248" style="enable-background:new 0 0 248 248;" xml:space="preserve">
<path d="M243,48.9c-7.6,3.4-16,5.5-24.3,6.9c3.9-0.7,9.6-7.7,11.9-10.6c3.5-4.4,6.4-9.3,8.1-14.7c0.2-0.4,0.4-0.9-0.1-1.3
	c-0.5-0.2-0.9-0.1-1.3,0.1c-9.2,4.9-18.7,8.5-28.8,11c-0.8,0.2-1.5,0-2-0.5c-0.8-0.9-1.6-1.8-2.5-2.6c-4.2-3.6-8.8-6.4-13.9-8.5
	c-6.7-2.7-14.1-3.9-21.4-3.4c-7.1,0.5-14,2.5-20.3,5.7c-6.3,3.3-11.9,7.9-16.4,13.4c-4.6,5.7-8,12.4-9.8,19.6
	c-1.7,6.9-1.5,13.7-0.5,20.7c0.2,1.2,0.1,1.3-1,1.2c-39.5-5.9-72.3-20-98.9-50.3c-1.2-1.3-1.8-1.3-2.7,0.1
	c-11.6,17.4-6,45.5,8.5,59.2c1.9,1.8,3.9,3.7,6.1,5.3c-0.8,0.2-10.5-0.9-19.1-5.3c-1.2-0.7-1.7-0.3-1.8,1c-0.1,1.9,0.1,3.6,0.3,5.7
	c2.2,17.7,14.5,34,31.2,40.4c2,0.8,4.2,1.6,6.3,1.9c-3.8,0.8-7.8,1.4-18.7,0.6c-1.4-0.3-1.9,0.4-1.4,1.7c8.2,22.4,26,29.1,39.3,32.9
	c1.8,0.3,3.6,0.3,5.4,0.7c-0.1,0.2-0.2,0.2-0.3,0.3c-4.4,6.7-19.7,11.7-26.9,14.2c-13,4.5-27.1,6.6-40.8,5.2c-2.2-0.3-2.7-0.3-3.2,0
	c-0.6,0.4-0.1,0.9,0.6,1.5c2.8,1.8,5.6,3.5,8.5,5c8.7,4.6,17.8,8.3,27.3,10.9c49,13.5,104.2,3.6,141-33c28.9-28.7,39-68.3,39-107.9
	c0-1.6,1.8-2.4,2.9-3.2c7.5-5.6,13.6-12.4,19.2-20c1.3-1.7,1.3-3.2,1.3-3.8c0-0.1,0-0.2,0-0.2C244,48.3,244,48.5,243,48.9z"/>
</svg>
