<?xml version="1.0" encoding="utf-8"?>
<!-- Generator: Adobe Illustrator 23.0.4, SVG Export Plug-In . SVG Version: 6.00 Build 0)  -->
<svg version="1.1" id="Capa_1" xmlns="http://www.w3.org/2000/svg" xmlns:xlink="http://www.w3.org/1999/xlink" x="0px" y="0px"
	 viewBox="0 0 248 248" style="enable-background:new 0 0 248 248;" xml:space="preserve">
<g>
	<g>
		<path d="M187.5,46.9c-7.8,0-14.1,6.3-14.1,14.1c0,7.8,6.3,14.1,14.1,14.1c7.8,0,14.1-6.3,14.1-14.1
			C201.6,53.2,195.3,46.9,187.5,46.9z"/>
		<path d="M125,64.9c-32.6,0-59.1,26.5-59.1,59.1c0,32.6,26.5,59.1,59.1,59.1c32.6,0,59.1-26.5,59.1-59.1
			C184.1,91.4,157.6,64.9,125,64.9z M125,161.9c-20.9,0-37.9-17-37.9-37.9s17-37.9,37.9-37.9c20.9,0,37.9,17,37.9,37.9
			S145.9,161.9,125,161.9z"/>
		<path d="M171.9,244H76.1C36.3,244,4,211.7,4,171.9V76.1C4,36.3,36.3,4,76.1,4h95.8C211.7,4,244,36.3,244,76.1v95.8
			C244,211.7,211.7,244,171.9,244z M76.1,26.6c-27.3,0-49.5,22.2-49.5,49.5v95.8c0,27.3,22.2,49.5,49.5,49.5h95.8
			c27.3,0,49.5-22.2,49.5-49.5V76.1c0-27.3-22.2-49.5-49.5-49.5H76.1z"/>
	</g>
</g>
</svg>
